<!DOCTYPE svg PUBLIC "-//W3C//DTD SVG 1.1//EN" "http://www.w3.org/Graphics/SVG/1.1/DTD/svg11.dtd">

<!-- Uploaded to: SVG Repo, www.svgrepo.com, Transformed by: SVG Repo Mixer Tools -->
<svg fill="#5d0085" width="64px" height="64px" viewBox="0 0 24 24" xmlns="http://www.w3.org/2000/svg">

<g id="SVGRepo_bgCarrier" stroke-width="0"/>

<g id="SVGRepo_tracerCarrier" stroke-linecap="round" stroke-linejoin="round"/>

<g id="SVGRepo_iconCarrier">

<path d="M5,22H19a1,1,0,0,0,1-1V6.414a1,1,0,0,0-.293-.707L16.293,2.293A1,1,0,0,0,15.586,2H5A1,1,0,0,0,4,3V21A1,1,0,0,0,5,22ZM8.793,10.207a1,1,0,0,1,1.414-1.414L12,10.586l1.793-1.793a1,1,0,0,1,1.414,1.414L13.414,12l1.793,1.793a1,1,0,1,1-1.414,1.414L12,13.414l-1.793,1.793a1,1,0,0,1-1.414-1.414L10.586,12Z"/>

</g>

</svg>