<!DOCTYPE svg PUBLIC "-//W3C//DTD SVG 1.1//EN" "http://www.w3.org/Graphics/SVG/1.1/DTD/svg11.dtd">

<!-- Uploaded to: SVG Repo, www.svgrepo.com, Transformed by: SVG Repo Mixer Tools -->
<svg fill="#5d0085" version="1.1" id="Layer_1" xmlns="http://www.w3.org/2000/svg" xmlns:xlink="http://www.w3.org/1999/xlink" width="64px" height="64px" viewBox="0 0 208 256" enable-background="new 0 0 208 256" xml:space="preserve">

<g id="SVGRepo_bgCarrier" stroke-width="0"/>

<g id="SVGRepo_tracerCarrier" stroke-linecap="round" stroke-linejoin="round"/>

<g id="SVGRepo_iconCarrier"> <path d="M2,35c0,0,0,184.486,0,186c0,17.87,14.416,32.192,32.084,32.899V254H205.82v-9.288c-13.226,0-23.928-10.702-23.928-23.928 s10.702-23.928,23.928-23.928v-0.202V2H35.8C17.526,2,2,16.726,2,35z M172.603,220.683c0,9.389,4.038,17.87,10.298,23.928H35.397 c-13.226,0.101-24.029-10.702-24.029-23.928c0-12.519,9.793-22.817,22.111-23.726l149.726-0.303 C176.743,202.712,172.603,211.192,172.603,220.683z M61.211,65.583c10.234-11.64,28.288-13.046,39.928-2.811l4.041,3.514 l4.041-3.514c11.86-10.278,29.693-8.829,39.928,2.811c10.278,11.86,8.829,29.693-2.811,39.928l-41.817,41.509L64.023,105.51 C52.382,95.276,50.933,77.267,61.211,65.583z"/> </g>

</svg>